<!-- Generated by IcoMoon.io -->
<svg version="1.1" xmlns="http://www.w3.org/2000/svg" width="32" height="32" viewBox="0 0 32 32">
<title>Icon-Twitter</title>
<path fill="none" stroke="#fff" stroke-linejoin="round" stroke-linecap="round" stroke-miterlimit="4" stroke-width="2.1818" d="M30.545 4.378c-1.455 0.713-2.88 1.002-4.364 1.44-1.631-1.84-4.048-1.942-6.371-1.072s-3.844 2.996-3.811 5.436v1.455c-4.72 0.121-8.924-2.029-11.636-5.818 0 0-6.083 10.812 5.818 16-2.723 1.814-5.439 3.037-8.727 2.909 4.812 2.623 10.055 3.524 14.595 2.207 5.207-1.513 9.487-5.415 11.129-11.261 0.49-1.778 0.733-3.615 0.723-5.459-0.003-0.362 2.196-4.032 2.644-5.837v0.001z"></path>
</svg>
