<!-- Generated by IcoMoon.io -->
<svg version="1.1" xmlns="http://www.w3.org/2000/svg" width="32" height="32" viewBox="0 0 32 32">
<title>Icon-Logo</title>
<path fill="#fff" d="M29.889 13.816c-0.423-7.877-6.395-13.816-13.889-13.816s-13.466 5.939-13.89 13.816c-0.185 3.434-1.495 13.831-1.508 13.935-0.062 0.493 0.138 0.983 0.529 1.29 0.384 0.302 4.065 2.959 14.929 2.959 10.686 0 14.412-2.649 14.801-2.952 0.398-0.307 0.602-0.8 0.538-1.297-0.013-0.105-1.323-10.499-1.509-13.935zM23.324 11.635c1.664 0.216 2.801 1.887 2.551 3.627-0.249 1.743-1.661 2.921-3.161 2.728-4.462-0.581-8.967-0.581-13.429 0-1.5 0.193-2.912-0.985-3.161-2.728-0.25-1.741 0.888-3.411 2.551-3.627 4.868-0.635 9.781-0.635 14.649 0z"></path>
<path fill="#fff" d="M11.405 16.439c0.85 0 1.538-0.689 1.538-1.538s-0.689-1.538-1.538-1.538c-0.85 0-1.538 0.689-1.538 1.538s0.689 1.538 1.538 1.538z"></path>
<path fill="#fff" d="M20.593 16.439c0.849 0 1.538-0.689 1.538-1.538s-0.689-1.538-1.538-1.538c-0.849 0-1.538 0.689-1.538 1.538s0.689 1.538 1.538 1.538z"></path>
</svg>
