<!-- Generated by IcoMoon.io -->
<svg version="1.1" xmlns="http://www.w3.org/2000/svg" width="32" height="32" viewBox="0 0 32 32">
<title>Icon-Pricing</title>
<path fill="#fff" opacity="0.5" d="M27.796 16.177l0.213 0.211c0.36 0.353 0.641 0.775 0.826 1.241 0.266 0.663 0.33 1.388 0.184 2.086s-0.497 1.339-1.008 1.843l-9.176 9.057c-0.344 0.34-0.752 0.609-1.202 0.793s-0.931 0.279-1.418 0.279-0.968-0.095-1.418-0.279c-0.45-0.184-0.858-0.453-1.202-0.793l-9.174-9.057c-0.344-0.339-0.617-0.742-0.803-1.186s-0.282-0.919-0.282-1.399c0-0.48 0.096-0.955 0.283-1.399s0.46-0.846 0.804-1.185l0.213-0.211 5.992 5.914h11.172l5.994-5.915z"></path>
<path fill="#fff" opacity="0.008000000000000002" d="M27.795 16.177l0.213 0.211c0.36 0.353 0.641 0.775 0.826 1.241l-6.486 6.4h-11.868l-6.761-6.674c0.179-0.358 0.417-0.685 0.703-0.967l0.213-0.211 5.994 5.915h11.172l5.994-5.915z"></path>
<path fill="#fff" d="M4.636 16.177l5.993 5.916h11.175l5.993-5.916-11.58-11.432-11.58 11.432z"></path>
<path fill="#fff" d="M18.226 1.137l10.392 10.259c0.395 0.39 0.665 0.886 0.776 1.427s0.058 1.101-0.152 1.612c-0.015 0.044-0.033 0.086-0.055 0.127-0.141 0.298-0.333 0.569-0.569 0.802l-6.817 6.728h-11.171l-6.817-6.728c-0.264-0.261-0.473-0.57-0.616-0.91s-0.216-0.705-0.216-1.074 0.074-0.733 0.216-1.074c0.143-0.34 0.352-0.65 0.616-0.91l10.393-10.259c0.264-0.261 0.577-0.468 0.922-0.609s0.715-0.214 1.088-0.214c0.373 0 0.743 0.073 1.088 0.214s0.658 0.348 0.922 0.609z"></path>
<path fill="#fff" opacity="0.25" d="M18.227 1.137l7.894 7.792c0 0-0.2-0.165-0.539-0.46s-0.828-0.713-1.397-1.23c-0.569-0.517-1.232-1.125-1.933-1.789s-1.432-1.377-2.166-2.093l-1.083-1.083c-0.358-0.347-0.707-0.728-1.035-1.044-0.309-0.295-0.687-0.511-1.1-0.628-0.377-0.107-0.771-0.135-1.16-0.084-0.334 0.049-0.656 0.156-0.952 0.315-0.232 0.13-0.447 0.288-0.64 0.469-0.339 0.295-0.539 0.455-0.539 0.455l0.629-0.621c0.264-0.261 0.577-0.468 0.922-0.609s0.715-0.214 1.088-0.214c0.373-0 0.743 0.073 1.088 0.214s0.658 0.348 0.922 0.609z"></path>
<path fill="#fff" opacity="0.008000000000000002" d="M29.244 14.435c-0.015 0.044-0.033 0.086-0.055 0.127-0.141 0.298-0.333 0.569-0.569 0.802l-0.823 0.813 0.048 0.048-2.131 2.208-3.813 3.88h-0.097l-5.587 0.043c-1.862 0.005-3.725 0.011-5.587 0.002h-0.115l-0.076-0.074c-1.994-1.977-3.975-3.965-5.944-5.963l0.144-0.143-0.824-0.813c-0.264-0.261-0.473-0.57-0.616-0.91s-0.216-0.705-0.216-1.074c0-0.368 0.074-0.733 0.216-1.074s0.352-0.65 0.616-0.91l2.652-2.618-1.532 1.603-0.769 0.798c-0.265 0.245-0.493 0.525-0.679 0.833-0.349 0.615-0.441 1.341-0.255 2.022 0.090 0.334 0.248 0.647 0.464 0.919 0.238 0.271 0.493 0.528 0.761 0.77 0.108 0.102 0.218 0.206 0.324 0.312 2.003 1.914 3.989 3.843 5.96 5.788 1.824-0.007 3.649-0.005 5.474 0.005l5.499 0.038 3.795-3.635 2.237-2.104 0.693-0.648c0.168-0.146 0.322-0.306 0.461-0.478 0.137-0.176 0.253-0.367 0.344-0.57z"></path>
<path fill="#fff" opacity="0.008000000000000002" d="M26.959 22.597l-8.124 8.018c-0.344 0.34-0.752 0.609-1.202 0.793s-0.931 0.279-1.418 0.279-0.968-0.095-1.418-0.279c-0.45-0.184-0.858-0.453-1.202-0.793l-8.506-8.398c0 0 0.337 0.306 0.932 0.842 0.58 0.546 1.429 1.307 2.42 2.249s2.157 2.029 3.384 3.218c0.613 0.596 1.248 1.209 1.891 1.834 0.594 0.608 1.395 0.979 2.249 1.041 0.848 0.068 1.692-0.181 2.363-0.698 0.083-0.054 0.168-0.143 0.253-0.213l0.059-0.054 0.014-0.009c-0.002-0.002 0.010-0.009 0.010-0.009l0.149-0.147c0.161-0.154 0.316-0.308 0.477-0.462 0.316-0.304 0.629-0.607 0.934-0.904 1.23-1.187 2.395-2.274 3.384-3.218s1.84-1.703 2.425-2.249c0.591-0.538 0.928-0.842 0.928-0.842z"></path>
<path fill="#fff" opacity="0.09" d="M17.308 2.043l10.393 10.259c0.144 0.142 0.258 0.311 0.335 0.497s0.116 0.385 0.115 0.586h-23.868c-0.002-0.201 0.037-0.4 0.114-0.586s0.191-0.355 0.336-0.496l10.392-10.259c0.29-0.285 0.683-0.446 1.092-0.446s0.802 0.16 1.092 0.446z"></path>
</svg>
