<!-- Generated by IcoMoon.io -->
<svg version="1.1" xmlns="http://www.w3.org/2000/svg" width="32" height="32" viewBox="0 0 32 32">
<title>Shape-Dot</title>
<path fill="#72c5f5" d="M0.346 8.216c0 0.096-0.077 0.173-0.173 0.173s-0.173-0.077-0.173-0.173c0-0.096 0.077-0.173 0.173-0.173s0.173 0.077 0.173 0.173z"></path>
<path fill="#72c5f5" d="M0.346 10.811c0 0.096-0.077 0.173-0.173 0.173s-0.173-0.077-0.173-0.173c0-0.096 0.077-0.173 0.173-0.173s0.173 0.077 0.173 0.173z"></path>
<path fill="#72c5f5" d="M0.346 13.405c0 0.096-0.077 0.173-0.173 0.173s-0.173-0.077-0.173-0.173c0-0.096 0.077-0.173 0.173-0.173s0.173 0.077 0.173 0.173z"></path>
<path fill="#72c5f5" d="M0.346 16c0 0.096-0.077 0.173-0.173 0.173s-0.173-0.077-0.173-0.173c0-0.096 0.077-0.173 0.173-0.173s0.173 0.077 0.173 0.173z"></path>
<path fill="#72c5f5" d="M2.941 8.216c0 0.096-0.077 0.173-0.173 0.173s-0.173-0.077-0.173-0.173c0-0.096 0.077-0.173 0.173-0.173s0.173 0.077 0.173 0.173z"></path>
<path fill="#72c5f5" d="M2.941 10.811c0 0.096-0.077 0.173-0.173 0.173s-0.173-0.077-0.173-0.173c0-0.096 0.077-0.173 0.173-0.173s0.173 0.077 0.173 0.173z"></path>
<path fill="#72c5f5" d="M2.941 13.405c0 0.096-0.077 0.173-0.173 0.173s-0.173-0.077-0.173-0.173c0-0.096 0.077-0.173 0.173-0.173s0.173 0.077 0.173 0.173z"></path>
<path fill="#72c5f5" d="M2.941 16c0 0.096-0.077 0.173-0.173 0.173s-0.173-0.077-0.173-0.173c0-0.096 0.077-0.173 0.173-0.173s0.173 0.077 0.173 0.173z"></path>
<path fill="#72c5f5" d="M5.535 8.216c0 0.096-0.077 0.173-0.173 0.173s-0.173-0.077-0.173-0.173c0-0.096 0.077-0.173 0.173-0.173s0.173 0.077 0.173 0.173z"></path>
<path fill="#72c5f5" d="M5.535 10.811c0 0.096-0.077 0.173-0.173 0.173s-0.173-0.077-0.173-0.173c0-0.096 0.077-0.173 0.173-0.173s0.173 0.077 0.173 0.173z"></path>
<path fill="#72c5f5" d="M5.535 13.405c0 0.096-0.077 0.173-0.173 0.173s-0.173-0.077-0.173-0.173c0-0.096 0.077-0.173 0.173-0.173s0.173 0.077 0.173 0.173z"></path>
<path fill="#72c5f5" d="M5.535 16c0 0.096-0.077 0.173-0.173 0.173s-0.173-0.077-0.173-0.173c0-0.096 0.077-0.173 0.173-0.173s0.173 0.077 0.173 0.173z"></path>
<path fill="#72c5f5" d="M8.13 8.216c0 0.096-0.077 0.173-0.173 0.173s-0.173-0.077-0.173-0.173c0-0.096 0.077-0.173 0.173-0.173s0.173 0.077 0.173 0.173z"></path>
<path fill="#72c5f5" d="M8.13 10.811c0 0.096-0.077 0.173-0.173 0.173s-0.173-0.077-0.173-0.173c0-0.096 0.077-0.173 0.173-0.173s0.173 0.077 0.173 0.173z"></path>
<path fill="#72c5f5" d="M8.13 13.405c0 0.096-0.077 0.173-0.173 0.173s-0.173-0.077-0.173-0.173c0-0.096 0.077-0.173 0.173-0.173s0.173 0.077 0.173 0.173z"></path>
<path fill="#72c5f5" d="M8.13 16c0 0.096-0.077 0.173-0.173 0.173s-0.173-0.077-0.173-0.173c0-0.096 0.077-0.173 0.173-0.173s0.173 0.077 0.173 0.173z"></path>
<path fill="#72c5f5" d="M10.724 8.216c0 0.096-0.077 0.173-0.173 0.173s-0.173-0.077-0.173-0.173c0-0.096 0.077-0.173 0.173-0.173s0.173 0.077 0.173 0.173z"></path>
<path fill="#72c5f5" d="M10.724 10.811c0 0.096-0.077 0.173-0.173 0.173s-0.173-0.077-0.173-0.173c0-0.096 0.077-0.173 0.173-0.173s0.173 0.077 0.173 0.173z"></path>
<path fill="#72c5f5" d="M10.724 13.405c0 0.096-0.077 0.173-0.173 0.173s-0.173-0.077-0.173-0.173c0-0.096 0.077-0.173 0.173-0.173s0.173 0.077 0.173 0.173z"></path>
<path fill="#72c5f5" d="M10.724 16c0 0.096-0.077 0.173-0.173 0.173s-0.173-0.077-0.173-0.173c0-0.096 0.077-0.173 0.173-0.173s0.173 0.077 0.173 0.173z"></path>
<path fill="#72c5f5" d="M13.319 8.216c0 0.096-0.077 0.173-0.173 0.173s-0.173-0.077-0.173-0.173c0-0.096 0.077-0.173 0.173-0.173s0.173 0.077 0.173 0.173z"></path>
<path fill="#72c5f5" d="M13.319 10.811c0 0.096-0.077 0.173-0.173 0.173s-0.173-0.077-0.173-0.173c0-0.096 0.077-0.173 0.173-0.173s0.173 0.077 0.173 0.173z"></path>
<path fill="#72c5f5" d="M13.319 13.405c0 0.096-0.077 0.173-0.173 0.173s-0.173-0.077-0.173-0.173c0-0.096 0.077-0.173 0.173-0.173s0.173 0.077 0.173 0.173z"></path>
<path fill="#72c5f5" d="M13.319 16c0 0.096-0.077 0.173-0.173 0.173s-0.173-0.077-0.173-0.173c0-0.096 0.077-0.173 0.173-0.173s0.173 0.077 0.173 0.173z"></path>
<path fill="#72c5f5" d="M15.914 8.216c0 0.096-0.077 0.173-0.173 0.173s-0.173-0.077-0.173-0.173c0-0.096 0.077-0.173 0.173-0.173s0.173 0.077 0.173 0.173z"></path>
<path fill="#72c5f5" d="M15.914 10.811c0 0.096-0.077 0.173-0.173 0.173s-0.173-0.077-0.173-0.173c0-0.096 0.077-0.173 0.173-0.173s0.173 0.077 0.173 0.173z"></path>
<path fill="#72c5f5" d="M15.914 13.405c0 0.096-0.077 0.173-0.173 0.173s-0.173-0.077-0.173-0.173c0-0.096 0.077-0.173 0.173-0.173s0.173 0.077 0.173 0.173z"></path>
<path fill="#72c5f5" d="M15.914 16c0 0.096-0.077 0.173-0.173 0.173s-0.173-0.077-0.173-0.173c0-0.096 0.077-0.173 0.173-0.173s0.173 0.077 0.173 0.173z"></path>
<path fill="#72c5f5" d="M18.508 8.216c0 0.096-0.077 0.173-0.173 0.173s-0.173-0.077-0.173-0.173c0-0.096 0.077-0.173 0.173-0.173s0.173 0.077 0.173 0.173z"></path>
<path fill="#72c5f5" d="M18.508 10.811c0 0.096-0.077 0.173-0.173 0.173s-0.173-0.077-0.173-0.173c0-0.096 0.077-0.173 0.173-0.173s0.173 0.077 0.173 0.173z"></path>
<path fill="#72c5f5" d="M18.508 13.405c0 0.096-0.077 0.173-0.173 0.173s-0.173-0.077-0.173-0.173c0-0.096 0.077-0.173 0.173-0.173s0.173 0.077 0.173 0.173z"></path>
<path fill="#72c5f5" d="M18.508 16c0 0.096-0.077 0.173-0.173 0.173s-0.173-0.077-0.173-0.173c0-0.096 0.077-0.173 0.173-0.173s0.173 0.077 0.173 0.173z"></path>
</svg>
