<!-- Generated by IcoMoon.io -->
<svg version="1.1" xmlns="http://www.w3.org/2000/svg" width="32" height="32" viewBox="0 0 32 32">
<title>Shape-Triangle</title>
<path fill="#2a85ff" d="M26.8 5.467l-5.467 5.2v-10.667h10.667l-5.2 5.467z"></path>
<path fill="#2a85ff" d="M16.133 5.467l-5.467 5.2v-10.667h10.667l-5.2 5.467z"></path>
<path fill="#2a85ff" d="M5.467 5.467l-5.467 5.2v-10.667h10.667l-5.2 5.467z"></path>
<path fill="#2a85ff" d="M26.8 16.133l-5.467 5.2v-10.667h10.667l-5.2 5.467z"></path>
<path fill="#2a85ff" d="M5.467 16.133l-5.467 5.2v-10.667h10.667l-5.2 5.467z"></path>
<path fill="#2a85ff" d="M26.8 26.8l-5.467 5.2v-10.667h10.667l-5.2 5.467z"></path>
<path fill="#2a85ff" d="M16.133 26.8l-5.467 5.2v-10.667h10.667l-5.2 5.467z"></path>
<path fill="#2a85ff" d="M5.467 26.8l-5.467 5.2v-10.667h10.667l-5.2 5.467z"></path>
</svg>
