<svg width="22" height="22" viewBox="0 0 22 22" fill="none" xmlns="http://www.w3.org/2000/svg">
<circle cx="11" cy="11" r="11" fill="#002352"/>
<g clip-path="url(#clip0_800_7382)">
<path d="M16.2083 10.1812C16.0497 7.22725 13.8103 5 10.9998 5C8.18913 5 5.94992 7.22725 5.79104 10.1812C5.7217 11.4689 5.23045 15.3676 5.2254 15.4067C5.20202 15.5916 5.27721 15.7755 5.4236 15.8905C5.5676 16.0039 6.94784 17 11.0221 17C15.0295 17 16.4265 16.0066 16.5726 15.8931C16.7217 15.7778 16.7984 15.5932 16.7743 15.4067C16.7695 15.3674 16.2782 11.4695 16.2083 10.1812ZM13.7465 9.36311C14.3703 9.44414 14.797 10.0706 14.7032 10.7232C14.6097 11.3767 14.0802 11.8186 13.5177 11.746C11.8444 11.5282 10.1552 11.5282 8.48192 11.746C7.91946 11.8183 7.38995 11.3767 7.29642 10.7232C7.20264 10.0704 7.6296 9.44414 8.25316 9.36311C10.0787 9.12505 11.921 9.12505 13.7465 9.36311Z" fill="white"/>
<path d="M9.277 11.1645C9.59556 11.1645 9.85381 10.9062 9.85381 10.5877C9.85381 10.2691 9.59556 10.0109 9.277 10.0109C8.95844 10.0109 8.7002 10.2691 8.7002 10.5877C8.7002 10.9062 8.95844 11.1645 9.277 11.1645Z" fill="white"/>
<path d="M12.7223 11.1645C13.0409 11.1645 13.2991 10.9062 13.2991 10.5877C13.2991 10.2691 13.0409 10.0109 12.7223 10.0109C12.4038 10.0109 12.1455 10.2691 12.1455 10.5877C12.1455 10.9062 12.4038 11.1645 12.7223 11.1645Z" fill="white"/>
</g>
<defs>
<clipPath id="clip0_800_7382">
<rect width="12" height="12" fill="white" transform="translate(5 5)"/>
</clipPath>
</defs>
</svg>
