<svg width="43" height="51" viewBox="0 0 43 51" fill="none" xmlns="http://www.w3.org/2000/svg">
<path d="M40.2994 25.7816L40.6394 26.1172C41.2124 26.6792 41.6606 27.3529 41.9555 28.0954C42.3799 29.1517 42.4817 30.3077 42.2485 31.4205C42.0152 32.5334 41.457 33.5545 40.6427 34.3578L26.018 48.7919C25.4698 49.3334 24.8188 49.7629 24.1024 50.056C23.3859 50.349 22.618 50.4999 21.8425 50.4999C21.067 50.4999 20.2991 50.349 19.5826 50.056C18.8662 49.7629 18.2152 49.3334 17.667 48.7919L3.04674 34.3578C2.49848 33.817 2.06362 33.1747 1.76704 32.4678C1.47047 31.7609 1.318 31.0032 1.31836 30.238C1.31872 29.4729 1.47192 28.7154 1.76916 28.0087C2.06641 27.3021 2.50188 26.6602 3.05066 26.1199L3.39061 25.7843L12.9407 35.2093H30.7466L40.2994 25.7816Z" fill="white" fill-opacity="0.5"/>
<g style="mix-blend-mode:multiply" opacity="0.2">
<g style="mix-blend-mode:multiply" opacity="0.2">
<path d="M40.2988 25.7816L40.6388 26.1172C41.2119 26.6793 41.6601 27.353 41.9549 28.0954L31.618 38.2955H12.7026L1.92773 27.6586C2.21326 27.0878 2.59165 26.5671 3.04785 26.1172L3.3878 25.7816L12.9401 35.2093H30.7459L40.2988 25.7816Z" fill="white" fill-opacity="0.2"/>
</g>
</g>
<path d="M3.38867 25.7816L12.9393 35.2099H30.7491L40.3003 25.7816L21.8447 7.56256L3.38867 25.7816Z" fill="white"/>
<path d="M25.0481 1.81147L41.6107 18.1623C42.2402 18.784 42.6702 19.5749 42.8472 20.4363C43.0241 21.2978 42.94 22.1916 42.6053 23.0061C42.5814 23.0757 42.552 23.1434 42.5174 23.2085C42.2929 23.6833 41.986 24.1157 41.6107 24.4862L30.7456 35.2093H12.942L2.07692 24.4862C1.65624 24.071 1.32253 23.5781 1.09486 23.0355C0.867184 22.493 0.75 21.9115 0.75 21.3243C0.75 20.7371 0.867184 20.1555 1.09486 19.6131C1.32253 19.0705 1.65624 18.5776 2.07692 18.1623L18.64 1.81147C19.0606 1.39572 19.56 1.0659 20.1098 0.84086C20.6596 0.615824 21.2489 0.5 21.8441 0.5C22.4392 0.5 23.0286 0.615824 23.5784 0.84086C24.1282 1.0659 24.6276 1.39572 25.0481 1.81147Z" fill="white"/>
<g style="mix-blend-mode:screen" opacity="0.5">
<g style="mix-blend-mode:screen" opacity="0.5">
<path d="M25.0488 1.81145L37.6299 14.2297C37.6299 14.2297 37.3118 13.9665 36.7707 13.4971C36.2297 13.0277 35.4507 12.3604 34.544 11.5372C33.6372 10.7139 32.5804 9.74361 31.4636 8.68595C30.3469 7.62829 29.182 6.49157 28.012 5.35099L26.2865 3.62545C25.7158 3.07257 25.1602 2.46439 24.6371 1.96127C24.1443 1.4911 23.5422 1.14748 22.8836 0.960562C22.2835 0.790486 21.6542 0.744945 21.0354 0.826779C20.5039 0.905008 19.9903 1.07473 19.5182 1.32823C19.1486 1.53553 18.8059 1.78654 18.4978 2.07572C17.9568 2.54511 17.6387 2.80111 17.6387 2.80111L18.6406 1.812C19.0611 1.39622 19.5606 1.06634 20.1103 0.841256C20.6601 0.616173 21.2494 0.500296 21.8446 0.500244C22.4397 0.500193 23.0291 0.61598 23.5789 0.840969C24.1287 1.06596 24.6282 1.39573 25.0488 1.81145Z" fill="white"/>
</g>
</g>
<g style="mix-blend-mode:multiply" opacity="0.2">
<g style="mix-blend-mode:multiply" opacity="0.2">
<path d="M42.6081 23.0062C42.5842 23.0758 42.5548 23.1434 42.5202 23.2085C42.2956 23.6833 41.9888 24.1157 41.6135 24.4862L40.3013 25.7816L40.378 25.8574L39.9462 26.3052L36.9813 29.377L31.0066 35.4604L30.9046 35.5615H30.7506L21.8457 35.6301C18.8775 35.6373 15.9092 35.6483 12.9409 35.634H12.7583L12.6368 35.5156C9.45939 32.3646 6.30159 29.1968 3.16341 26.0122L3.39359 25.7844L2.08082 24.489C1.66015 24.0738 1.32644 23.5809 1.09876 23.0383C0.87109 22.4958 0.753906 21.9143 0.753906 21.3271C0.753906 20.7398 0.87109 20.1583 1.09876 19.6158C1.32644 19.0733 1.66015 18.5804 2.08082 18.1651L6.30756 13.9926L3.86516 16.548L2.64032 17.8196C2.21871 18.2099 1.8545 18.6565 1.55829 19.1465C1.00136 20.1273 0.855611 21.2843 1.15225 22.3698C1.29561 22.9024 1.54691 23.4009 1.89096 23.8349C2.27095 24.2671 2.67619 24.6769 3.1046 25.0623C3.27654 25.2249 3.45184 25.3907 3.62041 25.5599C6.81234 28.6096 9.97856 31.6847 13.119 34.7853C16.026 34.7746 18.934 34.777 21.8429 34.7925L30.6073 34.8538L36.6559 29.0608L39.7675 26.1338L40.2212 25.7075L41.325 24.6753C41.592 24.4432 41.8379 24.1884 42.0598 23.914C42.2785 23.634 42.4625 23.3292 42.6081 23.0062Z" fill="white" fill-opacity="0.2"/>
</g>
</g>
<g style="mix-blend-mode:multiply" opacity="0.2">
<g style="mix-blend-mode:multiply" opacity="0.2">
<path d="M38.9664 36.0132L26.0185 48.792C25.4702 49.3335 24.8193 49.763 24.1028 50.0561C23.3864 50.3492 22.6185 50.5 21.843 50.5C21.0675 50.5 20.2996 50.3492 19.5831 50.0561C18.8667 49.763 18.2157 49.3335 17.6675 48.792L4.11133 35.4084C4.11133 35.4084 4.64898 35.8955 5.59604 36.7508C6.52068 37.6205 7.87377 38.8335 9.45313 40.3351C11.0325 41.8367 12.8902 43.5689 14.8459 45.4642C15.8221 46.4135 16.8352 47.3915 17.859 48.3878C18.8063 49.3573 20.0825 49.9478 21.4434 50.0464C22.7954 50.1545 24.1393 49.7578 25.2092 48.9346C25.3408 48.8484 25.4763 48.7074 25.6119 48.5957L25.7065 48.5089L25.7283 48.4945C25.725 48.4906 25.7435 48.4801 25.7435 48.4801L25.9809 48.2457C26.2369 48.0002 26.485 47.7548 26.7415 47.5093C27.2455 47.0255 27.7434 46.5417 28.2296 46.069C30.1898 44.1776 32.0469 42.4449 33.6223 40.94C35.1978 39.435 36.5548 38.2259 37.4867 37.3556C38.4293 36.4981 38.9664 36.0132 38.9664 36.0132Z" fill="white" fill-opacity="0.2"/>
</g>
</g>
<g style="mix-blend-mode:screen" opacity="0.3">
<g style="mix-blend-mode:screen" opacity="0.3">
<path d="M23.5845 3.25558L40.1476 19.6059C40.3768 19.8324 40.558 20.1016 40.681 20.3978C40.804 20.694 40.8661 21.0113 40.8639 21.3315H2.82433C2.82121 21.0112 2.88302 20.6935 3.00613 20.3972C3.12925 20.1009 3.31118 19.8318 3.54121 19.6059L20.1037 3.25558C20.5657 2.80064 21.1916 2.54517 21.8441 2.54517C22.4966 2.54517 23.1225 2.80064 23.5845 3.25558Z" fill="white"/>
</g>
</g>
</svg>
