<svg width="12" height="12" viewBox="0 0 12 12" fill="none" xmlns="http://www.w3.org/2000/svg">
<path d="M11.2083 5.18115C11.0497 2.22725 8.81026 0 5.99983 0C3.18913 0 0.949925 2.22725 0.791044 5.18115C0.7217 6.46894 0.230446 10.3676 0.225398 10.4067C0.202017 10.5916 0.277206 10.7755 0.4236 10.8905C0.567602 11.0039 1.94784 12 6.02215 12C10.0295 12 11.4265 11.0066 11.5726 10.8931C11.7217 10.7778 11.7984 10.5932 11.7743 10.4067C11.7695 10.3674 11.2782 6.46947 11.2083 5.18115ZM8.7465 4.36311C9.37033 4.44414 9.79702 5.07063 9.70323 5.72315C9.60971 6.37674 9.0802 6.81858 8.51774 6.74605C6.84445 6.52818 5.15521 6.52818 3.48192 6.74605C2.91946 6.81831 2.38995 6.37674 2.29642 5.72315C2.20264 5.07036 2.6296 4.44414 3.25316 4.36311C5.07869 4.12505 6.92097 4.12505 8.7465 4.36311Z" fill="white"/>
<path d="M4.277 6.16447C4.59556 6.16447 4.85381 5.90623 4.85381 5.58767C4.85381 5.26911 4.59556 5.01086 4.277 5.01086C3.95844 5.01086 3.7002 5.26911 3.7002 5.58767C3.7002 5.90623 3.95844 6.16447 4.277 6.16447Z" fill="white"/>
<path d="M7.72231 6.16447C8.04087 6.16447 8.29912 5.90623 8.29912 5.58767C8.29912 5.26911 8.04087 5.01086 7.72231 5.01086C7.40375 5.01086 7.14551 5.26911 7.14551 5.58767C7.14551 5.90623 7.40375 6.16447 7.72231 6.16447Z" fill="white"/>
</svg>
