<svg width="370" height="184" viewBox="0 0 370 184" fill="none" xmlns="http://www.w3.org/2000/svg">
<circle cx="2" cy="2" r="2" fill="#72C5F5"/>
<circle cx="2" cy="32" r="2" fill="#72C5F5"/>
<circle cx="2" cy="62" r="2" fill="#72C5F5"/>
<circle cx="2" cy="92" r="2" fill="#72C5F5"/>
<circle cx="32" cy="2" r="2" fill="#72C5F5"/>
<circle cx="32" cy="32" r="2" fill="#72C5F5"/>
<circle cx="32" cy="62" r="2" fill="#72C5F5"/>
<circle cx="32" cy="92" r="2" fill="#72C5F5"/>
<circle cx="62" cy="2" r="2" fill="#72C5F5"/>
<circle cx="62" cy="32" r="2" fill="#72C5F5"/>
<circle cx="62" cy="62" r="2" fill="#72C5F5"/>
<circle cx="62" cy="92" r="2" fill="#72C5F5"/>
<circle cx="92" cy="2" r="2" fill="#72C5F5"/>
<circle cx="92" cy="32" r="2" fill="#72C5F5"/>
<circle cx="92" cy="62" r="2" fill="#72C5F5"/>
<circle cx="92" cy="92" r="2" fill="#72C5F5"/>
<circle cx="122" cy="2" r="2" fill="#72C5F5"/>
<circle cx="122" cy="32" r="2" fill="#72C5F5"/>
<circle cx="122" cy="62" r="2" fill="#72C5F5"/>
<circle cx="122" cy="92" r="2" fill="#72C5F5"/>
<circle cx="152" cy="2" r="2" fill="#72C5F5"/>
<circle cx="152" cy="32" r="2" fill="#72C5F5"/>
<circle cx="152" cy="62" r="2" fill="#72C5F5"/>
<circle cx="152" cy="92" r="2" fill="#72C5F5"/>
<circle cx="182" cy="2" r="2" fill="#72C5F5"/>
<circle cx="182" cy="32" r="2" fill="#72C5F5"/>
<circle cx="182" cy="62" r="2" fill="#72C5F5"/>
<circle cx="182" cy="92" r="2" fill="#72C5F5"/>
<circle cx="212" cy="2" r="2" fill="#72C5F5"/>
<circle cx="212" cy="32" r="2" fill="#72C5F5"/>
<circle cx="212" cy="62" r="2" fill="#72C5F5"/>
<circle cx="212" cy="92" r="2" fill="#72C5F5"/>
</svg>
