<svg width="120" height="120" viewBox="0 0 120 120" fill="none" xmlns="http://www.w3.org/2000/svg">
<path d="M100.5 20.5L80 40L80 3.71547e-06L120 0L100.5 20.5Z" fill="#2A85FF"/>
<path d="M60.5 20.5L40 40L40 3.71547e-06L80 0L60.5 20.5Z" fill="#2A85FF"/>
<path d="M20.5 20.5L0 40L-3.29121e-06 3.71547e-06L40 0L20.5 20.5Z" fill="#2A85FF"/>
<path d="M100.5 60.5L80 80L80 40L120 40L100.5 60.5Z" fill="#2A85FF"/>
<path d="M20.5 60.5L0 80L-3.29121e-06 40L40 40L20.5 60.5Z" fill="#2A85FF"/>
<path d="M100.5 100.5L80 120L80 80L120 80L100.5 100.5Z" fill="#2A85FF"/>
<path d="M60.5 100.5L40 120L40 80L80 80L60.5 100.5Z" fill="#2A85FF"/>
<path d="M20.5 100.5L0 120L-3.29121e-06 80L40 80L20.5 100.5Z" fill="#2A85FF"/>
</svg>
