<svg aria-hidden="true" style="position: absolute; width: 0; height: 0; overflow: hidden;" version="1.1" xmlns="http://www.w3.org/2000/svg" xmlns:xlink="http://www.w3.org/1999/xlink">
<defs>
<symbol id="icon-x-solid" viewBox="0 0 24 32">
<path d="M23.538 5.281c0.706-0.85 0.594-2.112-0.256-2.819s-2.113-0.594-2.819 0.256l-8.463 10.156-8.463-10.156c-0.706-0.85-1.969-0.962-2.819-0.256s-0.963 1.969-0.256 2.819l8.931 10.719-8.931 10.719c-0.706 0.85-0.594 2.113 0.256 2.819s2.112 0.594 2.819-0.256l8.463-10.156 8.462 10.156c0.706 0.85 1.969 0.962 2.819 0.256s0.962-1.969 0.256-2.819l-8.931-10.719 8.931-10.719z"></path>
</symbol>
<symbol id="icon-bars-solid" viewBox="0 0 28 32">
<path d="M0 6c0-1.106 0.894-2 2-2h24c1.106 0 2 0.894 2 2s-0.894 2-2 2h-24c-1.106 0-2-0.894-2-2zM0 16c0-1.106 0.894-2 2-2h24c1.106 0 2 0.894 2 2s-0.894 2-2 2h-24c-1.106 0-2-0.894-2-2zM28 26c0 1.106-0.894 2-2 2h-24c-1.106 0-2-0.894-2-2s0.894-2 2-2h24c1.106 0 2 0.894 2 2z"></path>
</symbol>
<symbol id="icon-Icon-Arrow-Down" viewBox="0 0 32 32">
<path fill="none" stroke-linejoin="round" stroke-linecap="round" stroke-miterlimit="4" stroke-width="2" d="M16 6.667v18.667"></path>
<path fill="none" stroke-linejoin="round" stroke-linecap="round" stroke-miterlimit="4" stroke-width="2" d="M24 17.333l-8 8"></path>
<path fill="none" stroke-linejoin="round" stroke-linecap="round" stroke-miterlimit="4" stroke-width="2" d="M8 17.333l8 8"></path>
</symbol>
<symbol id="icon-Icon-Check" viewBox="0 0 32 32">
<path fill="none" stroke-linejoin="round" stroke-linecap="round" stroke-miterlimit="4" stroke-width="4" d="M6.667 16l6.667 6.667 13.333-13.333"></path>
</symbol>
<symbol id="icon-Icon-Discord" viewBox="0 0 32 32">
<path fill="none" stroke-linejoin="round" stroke-linecap="round" stroke-miterlimit="4" stroke-width="2" d="M12 17.333c0.736 0 1.333-0.597 1.333-1.333s-0.597-1.333-1.333-1.333c-0.736 0-1.333 0.597-1.333 1.333s0.597 1.333 1.333 1.333z"></path>
<path fill="none" stroke-linejoin="round" stroke-linecap="round" stroke-miterlimit="4" stroke-width="2" d="M20 17.333c0.736 0 1.333-0.597 1.333-1.333s-0.597-1.333-1.333-1.333c-0.736 0-1.333 0.597-1.333 1.333s0.597 1.333 1.333 1.333z"></path>
<path fill="none" stroke-linejoin="round" stroke-linecap="round" stroke-miterlimit="4" stroke-width="2" d="M10 10c4.667-1.333 7.333-1.333 12 0"></path>
<path fill="none" stroke-linejoin="round" stroke-linecap="round" stroke-miterlimit="4" stroke-width="2" d="M9.333 22c4.667 1.333 8.667 1.333 13.333 0"></path>
<path fill="none" stroke-linejoin="round" stroke-linecap="round" stroke-miterlimit="4" stroke-width="2" d="M20.667 22.667c0 1.333 2 4 2.667 4 2 0 3.777-2.223 4.667-4 0.889-2.223 0.667-7.777-2-15.333-1.943-1.353-4-1.787-6-2l-1.333 3.333"></path>
<path fill="none" stroke-linejoin="round" stroke-linecap="round" stroke-miterlimit="4" stroke-width="2" d="M11.333 22.667c0 1.333-1.808 4-2.443 4-1.905 0-3.597-2.223-4.444-4-0.847-2.223-0.635-7.777 1.904-15.333 1.851-1.353 3.709-1.787 5.649-2l1.333 3.333"></path>
</symbol>
<symbol id="icon-Icon-Download-Extension" viewBox="0 0 32 32">
<path fill="none" stroke="#fff" style="stroke: var(--color3, #fff)" stroke-linejoin="round" stroke-linecap="round" stroke-miterlimit="4" stroke-width="2.4" d="M16 28c6.627 0 12-5.373 12-12s-5.373-12-12-12c-6.627 0-12 5.373-12 12s5.373 12 12 12z"></path>
<path fill="none" stroke="#fff" style="stroke: var(--color3, #fff)" stroke-linejoin="round" stroke-linecap="round" stroke-miterlimit="4" stroke-width="2.4" d="M16 20c2.209 0 4-1.791 4-4s-1.791-4-4-4c-2.209 0-4 1.791-4 4s1.791 4 4 4z"></path>
<path fill="none" stroke="#fff" style="stroke: var(--color3, #fff)" stroke-linejoin="round" stroke-linecap="round" stroke-miterlimit="4" stroke-width="2.4" d="M16 12h11.2"></path>
<path fill="none" stroke="#fff" style="stroke: var(--color3, #fff)" stroke-linejoin="round" stroke-linecap="round" stroke-miterlimit="4" stroke-width="2.4" d="M19.464 18l-5.6 9.7"></path>
<path fill="none" stroke="#fff" style="stroke: var(--color3, #fff)" stroke-linejoin="round" stroke-linecap="round" stroke-miterlimit="4" stroke-width="2.4" d="M12.536 18l-5.6-9.7"></path>
</symbol>
<symbol id="icon-Icon-Logo" viewBox="0 0 32 32">
<path fill="#fff" style="fill: var(--color3, #fff)" d="M29.889 13.816c-0.423-7.877-6.395-13.816-13.889-13.816s-13.466 5.939-13.89 13.816c-0.185 3.434-1.495 13.831-1.508 13.935-0.062 0.493 0.138 0.983 0.529 1.29 0.384 0.302 4.065 2.959 14.929 2.959 10.686 0 14.412-2.649 14.801-2.952 0.398-0.307 0.602-0.8 0.538-1.297-0.013-0.105-1.323-10.499-1.509-13.935zM23.324 11.635c1.664 0.216 2.801 1.887 2.551 3.627-0.249 1.743-1.661 2.921-3.161 2.728-4.462-0.581-8.967-0.581-13.429 0-1.5 0.193-2.912-0.985-3.161-2.728-0.25-1.741 0.888-3.411 2.551-3.627 4.868-0.635 9.781-0.635 14.649 0z"></path>
<path fill="#fff" style="fill: var(--color3, #fff)" d="M11.405 16.439c0.85 0 1.538-0.689 1.538-1.538s-0.689-1.538-1.538-1.538c-0.85 0-1.538 0.689-1.538 1.538s0.689 1.538 1.538 1.538z"></path>
<path fill="#fff" style="fill: var(--color3, #fff)" d="M20.593 16.439c0.849 0 1.538-0.689 1.538-1.538s-0.689-1.538-1.538-1.538c-0.849 0-1.538 0.689-1.538 1.538s0.689 1.538 1.538 1.538z"></path>
</symbol>
<symbol id="icon-Icon-Pricing" viewBox="0 0 32 32">
<path fill="#fff" style="fill: var(--color3, #fff)" opacity="0.5" d="M27.796 16.177l0.213 0.211c0.36 0.353 0.641 0.775 0.826 1.241 0.266 0.663 0.33 1.388 0.184 2.086s-0.497 1.339-1.008 1.843l-9.176 9.057c-0.344 0.34-0.752 0.609-1.202 0.793s-0.931 0.279-1.418 0.279-0.968-0.095-1.418-0.279c-0.45-0.184-0.858-0.453-1.202-0.793l-9.174-9.057c-0.344-0.339-0.617-0.742-0.803-1.186s-0.282-0.919-0.282-1.399c0-0.48 0.096-0.955 0.283-1.399s0.46-0.846 0.804-1.185l0.213-0.211 5.992 5.914h11.172l5.994-5.915z"></path>
<path fill="#fff" style="fill: var(--color3, #fff)" opacity="0.008000000000000002" d="M27.795 16.177l0.213 0.211c0.36 0.353 0.641 0.775 0.826 1.241l-6.486 6.4h-11.868l-6.761-6.674c0.179-0.358 0.417-0.685 0.703-0.967l0.213-0.211 5.994 5.915h11.172l5.994-5.915z"></path>
<path fill="#fff" style="fill: var(--color3, #fff)" d="M4.636 16.177l5.993 5.916h11.175l5.993-5.916-11.58-11.432-11.58 11.432z"></path>
<path fill="#fff" style="fill: var(--color3, #fff)" d="M18.226 1.137l10.392 10.259c0.395 0.39 0.665 0.886 0.776 1.427s0.058 1.101-0.152 1.612c-0.015 0.044-0.033 0.086-0.055 0.127-0.141 0.298-0.333 0.569-0.569 0.802l-6.817 6.728h-11.171l-6.817-6.728c-0.264-0.261-0.473-0.57-0.616-0.91s-0.216-0.705-0.216-1.074 0.074-0.733 0.216-1.074c0.143-0.34 0.352-0.65 0.616-0.91l10.393-10.259c0.264-0.261 0.577-0.468 0.922-0.609s0.715-0.214 1.088-0.214c0.373 0 0.743 0.073 1.088 0.214s0.658 0.348 0.922 0.609z"></path>
<path fill="#fff" style="fill: var(--color3, #fff)" opacity="0.25" d="M18.227 1.137l7.894 7.792c0 0-0.2-0.165-0.539-0.46s-0.828-0.713-1.397-1.23c-0.569-0.517-1.232-1.125-1.933-1.789s-1.432-1.377-2.166-2.093l-1.083-1.083c-0.358-0.347-0.707-0.728-1.035-1.044-0.309-0.295-0.687-0.511-1.1-0.628-0.377-0.107-0.771-0.135-1.16-0.084-0.334 0.049-0.656 0.156-0.952 0.315-0.232 0.13-0.447 0.288-0.64 0.469-0.339 0.295-0.539 0.455-0.539 0.455l0.629-0.621c0.264-0.261 0.577-0.468 0.922-0.609s0.715-0.214 1.088-0.214c0.373-0 0.743 0.073 1.088 0.214s0.658 0.348 0.922 0.609z"></path>
<path fill="#fff" style="fill: var(--color3, #fff)" opacity="0.008000000000000002" d="M29.244 14.435c-0.015 0.044-0.033 0.086-0.055 0.127-0.141 0.298-0.333 0.569-0.569 0.802l-0.823 0.813 0.048 0.048-2.131 2.208-3.813 3.88h-0.097l-5.587 0.043c-1.862 0.005-3.725 0.011-5.587 0.002h-0.115l-0.076-0.074c-1.994-1.977-3.975-3.965-5.944-5.963l0.144-0.143-0.824-0.813c-0.264-0.261-0.473-0.57-0.616-0.91s-0.216-0.705-0.216-1.074c0-0.368 0.074-0.733 0.216-1.074s0.352-0.65 0.616-0.91l2.652-2.618-1.532 1.603-0.769 0.798c-0.265 0.245-0.493 0.525-0.679 0.833-0.349 0.615-0.441 1.341-0.255 2.022 0.090 0.334 0.248 0.647 0.464 0.919 0.238 0.271 0.493 0.528 0.761 0.77 0.108 0.102 0.218 0.206 0.324 0.312 2.003 1.914 3.989 3.843 5.96 5.788 1.824-0.007 3.649-0.005 5.474 0.005l5.499 0.038 3.795-3.635 2.237-2.104 0.693-0.648c0.168-0.146 0.322-0.306 0.461-0.478 0.137-0.176 0.253-0.367 0.344-0.57z"></path>
<path fill="#fff" style="fill: var(--color3, #fff)" opacity="0.008000000000000002" d="M26.959 22.597l-8.124 8.018c-0.344 0.34-0.752 0.609-1.202 0.793s-0.931 0.279-1.418 0.279-0.968-0.095-1.418-0.279c-0.45-0.184-0.858-0.453-1.202-0.793l-8.506-8.398c0 0 0.337 0.306 0.932 0.842 0.58 0.546 1.429 1.307 2.42 2.249s2.157 2.029 3.384 3.218c0.613 0.596 1.248 1.209 1.891 1.834 0.594 0.608 1.395 0.979 2.249 1.041 0.848 0.068 1.692-0.181 2.363-0.698 0.083-0.054 0.168-0.143 0.253-0.213l0.059-0.054 0.014-0.009c-0.002-0.002 0.010-0.009 0.010-0.009l0.149-0.147c0.161-0.154 0.316-0.308 0.477-0.462 0.316-0.304 0.629-0.607 0.934-0.904 1.23-1.187 2.395-2.274 3.384-3.218s1.84-1.703 2.425-2.249c0.591-0.538 0.928-0.842 0.928-0.842z"></path>
<path fill="#fff" style="fill: var(--color3, #fff)" opacity="0.09" d="M17.308 2.043l10.393 10.259c0.144 0.142 0.258 0.311 0.335 0.497s0.116 0.385 0.115 0.586h-23.868c-0.002-0.201 0.037-0.4 0.114-0.586s0.191-0.355 0.336-0.496l10.392-10.259c0.29-0.285 0.683-0.446 1.092-0.446s0.802 0.16 1.092 0.446z"></path>
</symbol>
<symbol id="icon-Icon-Twitter" viewBox="0 0 32 32">
<path fill="none" stroke-linejoin="round" stroke-linecap="round" stroke-miterlimit="4" stroke-width="2.1818" d="M30.545 4.378c-1.455 0.713-2.88 1.002-4.364 1.44-1.631-1.84-4.048-1.942-6.371-1.072s-3.844 2.996-3.811 5.436v1.455c-4.72 0.121-8.924-2.029-11.636-5.818 0 0-6.083 10.812 5.818 16-2.723 1.814-5.439 3.037-8.727 2.909 4.812 2.623 10.055 3.524 14.595 2.207 5.207-1.513 9.487-5.415 11.129-11.261 0.49-1.778 0.733-3.615 0.723-5.459-0.003-0.362 2.196-4.032 2.644-5.837v0.001z"></path>
</symbol>
<symbol id="icon-Icon-Website" viewBox="0 0 32 32">
<path fill="none" stroke-linejoin="round" stroke-linecap="round" stroke-miterlimit="4" stroke-width="2" d="M16 28c6.627 0 12-5.373 12-12s-5.373-12-12-12c-6.627 0-12 5.373-12 12s5.373 12 12 12z"></path>
<path fill="none" stroke-linejoin="round" stroke-linecap="round" stroke-miterlimit="4" stroke-width="2" d="M4.8 12h22.4"></path>
<path fill="none" stroke-linejoin="round" stroke-linecap="round" stroke-miterlimit="4" stroke-width="2" d="M4.8 20h22.4"></path>
<path fill="none" stroke-linejoin="round" stroke-linecap="round" stroke-miterlimit="4" stroke-width="2" d="M15.334 4c-2.246 3.599-3.437 7.757-3.437 12s1.191 8.401 3.437 12"></path>
<path fill="none" stroke-linejoin="round" stroke-linecap="round" stroke-miterlimit="4" stroke-width="2" d="M16.667 4c2.246 3.599 3.437 7.757 3.437 12s-1.191 8.401-3.437 12"></path>
</symbol>
<symbol id="icon-Shape-Circle" viewBox="0 0 32 32">
<path d="M0 25.6c0-14.139 11.461-25.6 25.6-25.6h6.4v32h-32v-6.4z"></path>
</symbol>
<symbol id="icon-Shape-Dot" viewBox="0 0 32 32">
<path fill="#72c5f5" style="fill: var(--color4, #72c5f5)" d="M0.346 8.216c0 0.096-0.077 0.173-0.173 0.173s-0.173-0.077-0.173-0.173c0-0.096 0.077-0.173 0.173-0.173s0.173 0.077 0.173 0.173z"></path>
<path fill="#72c5f5" style="fill: var(--color4, #72c5f5)" d="M0.346 10.811c0 0.096-0.077 0.173-0.173 0.173s-0.173-0.077-0.173-0.173c0-0.096 0.077-0.173 0.173-0.173s0.173 0.077 0.173 0.173z"></path>
<path fill="#72c5f5" style="fill: var(--color4, #72c5f5)" d="M0.346 13.405c0 0.096-0.077 0.173-0.173 0.173s-0.173-0.077-0.173-0.173c0-0.096 0.077-0.173 0.173-0.173s0.173 0.077 0.173 0.173z"></path>
<path fill="#72c5f5" style="fill: var(--color4, #72c5f5)" d="M0.346 16c0 0.096-0.077 0.173-0.173 0.173s-0.173-0.077-0.173-0.173c0-0.096 0.077-0.173 0.173-0.173s0.173 0.077 0.173 0.173z"></path>
<path fill="#72c5f5" style="fill: var(--color4, #72c5f5)" d="M2.941 8.216c0 0.096-0.077 0.173-0.173 0.173s-0.173-0.077-0.173-0.173c0-0.096 0.077-0.173 0.173-0.173s0.173 0.077 0.173 0.173z"></path>
<path fill="#72c5f5" style="fill: var(--color4, #72c5f5)" d="M2.941 10.811c0 0.096-0.077 0.173-0.173 0.173s-0.173-0.077-0.173-0.173c0-0.096 0.077-0.173 0.173-0.173s0.173 0.077 0.173 0.173z"></path>
<path fill="#72c5f5" style="fill: var(--color4, #72c5f5)" d="M2.941 13.405c0 0.096-0.077 0.173-0.173 0.173s-0.173-0.077-0.173-0.173c0-0.096 0.077-0.173 0.173-0.173s0.173 0.077 0.173 0.173z"></path>
<path fill="#72c5f5" style="fill: var(--color4, #72c5f5)" d="M2.941 16c0 0.096-0.077 0.173-0.173 0.173s-0.173-0.077-0.173-0.173c0-0.096 0.077-0.173 0.173-0.173s0.173 0.077 0.173 0.173z"></path>
<path fill="#72c5f5" style="fill: var(--color4, #72c5f5)" d="M5.535 8.216c0 0.096-0.077 0.173-0.173 0.173s-0.173-0.077-0.173-0.173c0-0.096 0.077-0.173 0.173-0.173s0.173 0.077 0.173 0.173z"></path>
<path fill="#72c5f5" style="fill: var(--color4, #72c5f5)" d="M5.535 10.811c0 0.096-0.077 0.173-0.173 0.173s-0.173-0.077-0.173-0.173c0-0.096 0.077-0.173 0.173-0.173s0.173 0.077 0.173 0.173z"></path>
<path fill="#72c5f5" style="fill: var(--color4, #72c5f5)" d="M5.535 13.405c0 0.096-0.077 0.173-0.173 0.173s-0.173-0.077-0.173-0.173c0-0.096 0.077-0.173 0.173-0.173s0.173 0.077 0.173 0.173z"></path>
<path fill="#72c5f5" style="fill: var(--color4, #72c5f5)" d="M5.535 16c0 0.096-0.077 0.173-0.173 0.173s-0.173-0.077-0.173-0.173c0-0.096 0.077-0.173 0.173-0.173s0.173 0.077 0.173 0.173z"></path>
<path fill="#72c5f5" style="fill: var(--color4, #72c5f5)" d="M8.13 8.216c0 0.096-0.077 0.173-0.173 0.173s-0.173-0.077-0.173-0.173c0-0.096 0.077-0.173 0.173-0.173s0.173 0.077 0.173 0.173z"></path>
<path fill="#72c5f5" style="fill: var(--color4, #72c5f5)" d="M8.13 10.811c0 0.096-0.077 0.173-0.173 0.173s-0.173-0.077-0.173-0.173c0-0.096 0.077-0.173 0.173-0.173s0.173 0.077 0.173 0.173z"></path>
<path fill="#72c5f5" style="fill: var(--color4, #72c5f5)" d="M8.13 13.405c0 0.096-0.077 0.173-0.173 0.173s-0.173-0.077-0.173-0.173c0-0.096 0.077-0.173 0.173-0.173s0.173 0.077 0.173 0.173z"></path>
<path fill="#72c5f5" style="fill: var(--color4, #72c5f5)" d="M8.13 16c0 0.096-0.077 0.173-0.173 0.173s-0.173-0.077-0.173-0.173c0-0.096 0.077-0.173 0.173-0.173s0.173 0.077 0.173 0.173z"></path>
<path fill="#72c5f5" style="fill: var(--color4, #72c5f5)" d="M10.724 8.216c0 0.096-0.077 0.173-0.173 0.173s-0.173-0.077-0.173-0.173c0-0.096 0.077-0.173 0.173-0.173s0.173 0.077 0.173 0.173z"></path>
<path fill="#72c5f5" style="fill: var(--color4, #72c5f5)" d="M10.724 10.811c0 0.096-0.077 0.173-0.173 0.173s-0.173-0.077-0.173-0.173c0-0.096 0.077-0.173 0.173-0.173s0.173 0.077 0.173 0.173z"></path>
<path fill="#72c5f5" style="fill: var(--color4, #72c5f5)" d="M10.724 13.405c0 0.096-0.077 0.173-0.173 0.173s-0.173-0.077-0.173-0.173c0-0.096 0.077-0.173 0.173-0.173s0.173 0.077 0.173 0.173z"></path>
<path fill="#72c5f5" style="fill: var(--color4, #72c5f5)" d="M10.724 16c0 0.096-0.077 0.173-0.173 0.173s-0.173-0.077-0.173-0.173c0-0.096 0.077-0.173 0.173-0.173s0.173 0.077 0.173 0.173z"></path>
<path fill="#72c5f5" style="fill: var(--color4, #72c5f5)" d="M13.319 8.216c0 0.096-0.077 0.173-0.173 0.173s-0.173-0.077-0.173-0.173c0-0.096 0.077-0.173 0.173-0.173s0.173 0.077 0.173 0.173z"></path>
<path fill="#72c5f5" style="fill: var(--color4, #72c5f5)" d="M13.319 10.811c0 0.096-0.077 0.173-0.173 0.173s-0.173-0.077-0.173-0.173c0-0.096 0.077-0.173 0.173-0.173s0.173 0.077 0.173 0.173z"></path>
<path fill="#72c5f5" style="fill: var(--color4, #72c5f5)" d="M13.319 13.405c0 0.096-0.077 0.173-0.173 0.173s-0.173-0.077-0.173-0.173c0-0.096 0.077-0.173 0.173-0.173s0.173 0.077 0.173 0.173z"></path>
<path fill="#72c5f5" style="fill: var(--color4, #72c5f5)" d="M13.319 16c0 0.096-0.077 0.173-0.173 0.173s-0.173-0.077-0.173-0.173c0-0.096 0.077-0.173 0.173-0.173s0.173 0.077 0.173 0.173z"></path>
<path fill="#72c5f5" style="fill: var(--color4, #72c5f5)" d="M15.914 8.216c0 0.096-0.077 0.173-0.173 0.173s-0.173-0.077-0.173-0.173c0-0.096 0.077-0.173 0.173-0.173s0.173 0.077 0.173 0.173z"></path>
<path fill="#72c5f5" style="fill: var(--color4, #72c5f5)" d="M15.914 10.811c0 0.096-0.077 0.173-0.173 0.173s-0.173-0.077-0.173-0.173c0-0.096 0.077-0.173 0.173-0.173s0.173 0.077 0.173 0.173z"></path>
<path fill="#72c5f5" style="fill: var(--color4, #72c5f5)" d="M15.914 13.405c0 0.096-0.077 0.173-0.173 0.173s-0.173-0.077-0.173-0.173c0-0.096 0.077-0.173 0.173-0.173s0.173 0.077 0.173 0.173z"></path>
<path fill="#72c5f5" style="fill: var(--color4, #72c5f5)" d="M15.914 16c0 0.096-0.077 0.173-0.173 0.173s-0.173-0.077-0.173-0.173c0-0.096 0.077-0.173 0.173-0.173s0.173 0.077 0.173 0.173z"></path>
<path fill="#72c5f5" style="fill: var(--color4, #72c5f5)" d="M18.508 8.216c0 0.096-0.077 0.173-0.173 0.173s-0.173-0.077-0.173-0.173c0-0.096 0.077-0.173 0.173-0.173s0.173 0.077 0.173 0.173z"></path>
<path fill="#72c5f5" style="fill: var(--color4, #72c5f5)" d="M18.508 10.811c0 0.096-0.077 0.173-0.173 0.173s-0.173-0.077-0.173-0.173c0-0.096 0.077-0.173 0.173-0.173s0.173 0.077 0.173 0.173z"></path>
<path fill="#72c5f5" style="fill: var(--color4, #72c5f5)" d="M18.508 13.405c0 0.096-0.077 0.173-0.173 0.173s-0.173-0.077-0.173-0.173c0-0.096 0.077-0.173 0.173-0.173s0.173 0.077 0.173 0.173z"></path>
<path fill="#72c5f5" style="fill: var(--color4, #72c5f5)" d="M18.508 16c0 0.096-0.077 0.173-0.173 0.173s-0.173-0.077-0.173-0.173c0-0.096 0.077-0.173 0.173-0.173s0.173 0.077 0.173 0.173z"></path>
</symbol>
<symbol id="icon-Shape-Triangle" viewBox="0 0 32 32">
<path fill="#2a85ff" style="fill: var(--color2, #2a85ff)" d="M26.8 5.467l-5.467 5.2v-10.667h10.667l-5.2 5.467z"></path>
<path fill="#2a85ff" style="fill: var(--color2, #2a85ff)" d="M16.133 5.467l-5.467 5.2v-10.667h10.667l-5.2 5.467z"></path>
<path fill="#2a85ff" style="fill: var(--color2, #2a85ff)" d="M5.467 5.467l-5.467 5.2v-10.667h10.667l-5.2 5.467z"></path>
<path fill="#2a85ff" style="fill: var(--color2, #2a85ff)" d="M26.8 16.133l-5.467 5.2v-10.667h10.667l-5.2 5.467z"></path>
<path fill="#2a85ff" style="fill: var(--color2, #2a85ff)" d="M5.467 16.133l-5.467 5.2v-10.667h10.667l-5.2 5.467z"></path>
<path fill="#2a85ff" style="fill: var(--color2, #2a85ff)" d="M26.8 26.8l-5.467 5.2v-10.667h10.667l-5.2 5.467z"></path>
<path fill="#2a85ff" style="fill: var(--color2, #2a85ff)" d="M16.133 26.8l-5.467 5.2v-10.667h10.667l-5.2 5.467z"></path>
<path fill="#2a85ff" style="fill: var(--color2, #2a85ff)" d="M5.467 26.8l-5.467 5.2v-10.667h10.667l-5.2 5.467z"></path>
</symbol>
</defs>
</svg>
